<svg xmlns="http://www.w3.org/2000/svg" width="480" height="640" viewBox="0 0 480 640"><defs><radialGradient id="cover-glow"><stop stop-color="#306855"></stop><stop offset="1" stop-color="#192d25"></stop></radialGradient><pattern id="cover-woven" width="10" height="10" patternUnits="userSpaceOnUse"><path d="M0 0 10 10M10 0 0 10" stroke="#d4c187" stroke-opacity="0.025" fill="none"></path></pattern></defs><rect width="480" height="640" fill="url(#cover-glow)"></rect><rect width="480" height="640" fill="url(#cover-woven)"></rect><ellipse cx="240" cy="274" rx="204" ry="220" fill="none" stroke="#dbc38c" stroke-opacity="0.16"></ellipse><ellipse cx="240" cy="274" rx="192" ry="207" fill="none" stroke="#dbc38c" stroke-opacity="0.08"></ellipse><path d="M34 172V48h122M324 48h122v124M34 440v140h122M324 580h122V440" fill="none" stroke="#dbc38c" stroke-opacity="0.15"></path><g transform="translate(90 212) rotate(-19 55 85)"><rect x="7" y="12" width="112" height="160" rx="12" fill="#0c1613" opacity="0.3"></rect><svg width="112" height="160" viewBox="0 0 72 100"><svg class="classic-card-art mahjong-art" viewBox="0 0 72 100" aria-hidden="true" focusable="false" data-tile="9"><defs><linearGradient id="«R17»tile" x2=".7" y2="1"><stop stop-color="#fffef4"></stop><stop offset=".55" stop-color="#f4eedc"></stop><stop offset="1" stop-color="#d6cfb7"></stop></linearGradient><linearGradient id="«R17»jade" x2="0" y2="1"><stop stop-color="#538f79"></stop><stop offset="1" stop-color="#184a3e"></stop></linearGradient></defs><rect x="1" y="5" width="70" height="94" rx="9" fill="url(#«R17»jade)" stroke="#123e32"></rect><rect x="1" y="1" width="70" height="90" rx="9" fill="url(#«R17»tile)" stroke="#b6b49e"></rect><rect x="5" y="5" width="62" height="82" rx="6" fill="none" stroke="#fffef7" stroke-opacity=".8"></rect><g transform="translate(36 46)"><circle r="20" fill="#28557c"></circle><circle r="13.200000000000001" fill="none" stroke="#f4ebd3" stroke-width="3"></circle><circle r="4.6000000000000005" fill="#f4ebd3"></circle></g><g stroke="#f4ebd3" stroke-width="1.4"><path d="M36 30v7" transform="rotate(0 36 46)"></path><path d="M36 30v7" transform="rotate(45 36 46)"></path><path d="M36 30v7" transform="rotate(90 36 46)"></path><path d="M36 30v7" transform="rotate(135 36 46)"></path><path d="M36 30v7" transform="rotate(180 36 46)"></path><path d="M36 30v7" transform="rotate(225 36 46)"></path><path d="M36 30v7" transform="rotate(270 36 46)"></path><path d="M36 30v7" transform="rotate(315 36 46)"></path></g></svg></svg></g><g transform="translate(198 176) rotate(0 55 85)"><rect x="7" y="12" width="112" height="160" rx="12" fill="#0c1613" opacity="0.3"></rect><svg width="112" height="160" viewBox="0 0 72 100"><svg class="classic-card-art mahjong-art" viewBox="0 0 72 100" aria-hidden="true" focusable="false" data-tile="18"><defs><linearGradient id="«R18»tile" x2=".7" y2="1"><stop stop-color="#fffef4"></stop><stop offset=".55" stop-color="#f4eedc"></stop><stop offset="1" stop-color="#d6cfb7"></stop></linearGradient><linearGradient id="«R18»jade" x2="0" y2="1"><stop stop-color="#538f79"></stop><stop offset="1" stop-color="#184a3e"></stop></linearGradient></defs><rect x="1" y="5" width="70" height="94" rx="9" fill="url(#«R18»jade)" stroke="#123e32"></rect><rect x="1" y="1" width="70" height="90" rx="9" fill="url(#«R18»tile)" stroke="#b6b49e"></rect><rect x="5" y="5" width="62" height="82" rx="6" fill="none" stroke="#fffef7" stroke-opacity=".8"></rect><g stroke-linejoin="round"><path d="M34 38q-18 4-15 22l9 8-9 16 20-12q17-4 17-25L44 35Z" fill="#26715a" stroke="#1e5147" stroke-width="1.2"></path><path d="M31 47q-11 7-5 17 13 0 23-21-2 16-16 25" fill="#82a779" stroke="#f0e4b9"></path><path d="m34 40-5-18 10-9 12 7-1 18-9 8Z" fill="#28557c"></path><path d="m50 25 10 3-10 4" fill="#a93238"></path><path d="M32 21q8-12 16-1" fill="none" stroke="#a93238" stroke-width="5"></path><circle cx="44" cy="25" r="2" fill="#f7ead3"></circle><circle cx="44" cy="25" r="1" fill="#233c3e"></circle><path d="m31 68-2 7m9-8v8M16 79l37-7" fill="none" stroke="#af6247" stroke-width="2"></path></g></svg></svg></g><g transform="translate(306 212) rotate(19 55 85)"><rect x="7" y="12" width="112" height="160" rx="12" fill="#0c1613" opacity="0.3"></rect><svg width="112" height="160" viewBox="0 0 72 100"><svg class="classic-card-art mahjong-art" viewBox="0 0 72 100" aria-hidden="true" focusable="false" data-tile="33"><defs><linearGradient id="«R19»tile" x2=".7" y2="1"><stop stop-color="#fffef4"></stop><stop offset=".55" stop-color="#f4eedc"></stop><stop offset="1" stop-color="#d6cfb7"></stop></linearGradient><linearGradient id="«R19»jade" x2="0" y2="1"><stop stop-color="#538f79"></stop><stop offset="1" stop-color="#184a3e"></stop></linearGradient></defs><rect x="1" y="5" width="70" height="94" rx="9" fill="url(#«R19»jade)" stroke="#123e32"></rect><rect x="1" y="1" width="70" height="90" rx="9" fill="url(#«R19»tile)" stroke="#b6b49e"></rect><rect x="5" y="5" width="62" height="82" rx="6" fill="none" stroke="#fffef7" stroke-opacity=".8"></rect><path d="M9 13h33v21H9ZM25 3v43" transform="translate(8 16) scale(1.12 1.3)" fill="none" stroke="#a93238" stroke-width="3.2" stroke-linecap="round" stroke-linejoin="round"></path></svg></svg></g><path d="m229 119 11-16 11 16-11 16Z" fill="none" stroke="#dfc78e" stroke-opacity="0.6"></path><path d="M132 418h216" stroke="#dec78b" stroke-opacity="0.3"></path><text x="240" y="454" text-anchor="middle" font-family="Georgia,serif" font-size="13" letter-spacing="5" fill="#dec78b" opacity="0.65">MOCHA TABLETOP</text></svg>